<svg width="205" height="125" viewBox="0 0 205 125" fill="none" xmlns="http://www.w3.org/2000/svg">
<path fill-rule="evenodd" clip-rule="evenodd" d="M107.38 48.003C108.324 56.0851 104.724 64.7871 97.9717 69.4039C91.0115 74.1635 81.8986 73.9456 75.7726 67.924C63.3916 55.7548 72.3979 32.6429 89.6318 31.7629C94.0075 31.5394 97.8861 33.1951 101.224 35.962C104.911 39.0165 106.205 43.5576 107.38 48.003Z" fill="#FF5678"/>
<path fill-rule="evenodd" clip-rule="evenodd" d="M150.887 84.4949C150.446 84.5292 150.006 84.5635 149.565 84.598C149.567 84.6486 157.842 86.4633 158.887 86.8512C162.429 88.1679 165.641 90.2554 168.837 92.2416C175.606 96.4487 181.616 101.885 188.449 105.955C190.697 107.294 194.237 109.823 197.025 108.308C199.797 106.802 197.584 100.953 196.176 99.1242C193.967 96.2573 190.454 94.3894 187.361 92.6407C183.986 90.7336 180.636 88.7973 177.017 87.3844C173.114 85.861 168.973 84.5315 164.796 84.0766C160.116 83.5667 155.557 84.0993 150.887 84.4949ZM138.214 89.2147C136.743 86.8729 137.068 90.2158 135.436 89.5813C133.647 88.8853 137.761 85.8067 138.558 85.2979C143.264 82.2952 149.705 81.3483 155.162 80.8371C157.916 80.5796 160.67 80.1519 163.437 80.0583C166.135 79.9674 168.893 80.6046 171.521 81.1717C176.78 82.3079 181.93 84.2987 186.656 86.8577C191.397 89.4241 196.25 92.4004 199.843 96.5003C202.812 99.8882 203.136 106.432 199.425 109.385C195.634 112.401 190.282 111.129 186.465 108.952C181.485 106.112 176.439 102.916 171.874 99.4502C169.527 97.6695 166.912 96.3502 164.507 94.6537C161.946 92.8481 159.459 91.3591 156.492 90.3115C153.618 89.2973 150.733 88.2338 147.687 87.8903C144.352 87.5143 141.407 88.3591 138.214 89.2147Z" fill="black"/>
<path fill-rule="evenodd" clip-rule="evenodd" d="M49.3523 12.0936C50.7246 15.6801 52.2614 19.2063 53.6135 22.794C54.8941 26.1913 56.0888 29.1797 58.542 31.9394C58.6883 27.2334 58.7622 22.5362 58.7718 17.8273C58.7764 15.4919 58.8167 13.1516 58.7799 10.8168C58.7519 9.0104 58.6014 7.46967 60.2742 6.32413C62.2216 4.99072 62.46 7.18363 62.2653 8.64255C61.997 10.6547 62.0571 12.7521 61.9333 14.7961C61.6574 19.3583 61.5003 23.9161 61.3617 28.4836C61.3187 29.9035 61.8974 37.9086 58.6223 35.8458C57.2203 34.9632 55.9213 32.5036 54.7559 31.2775C53.2611 29.7046 52.325 27.8071 51.3777 25.8658C49.4035 21.8196 47.8976 17.4752 46.0193 13.3469C45.0599 11.2387 44.1007 9.131 43.1415 7.02328C42.5798 5.7881 42.4676 5.28466 43.8189 4.56076C44.8007 4.03435 45.9346 4.07389 47.0126 4.03787C49.7513 3.94552 52.4947 3.92405 55.2344 3.89622C56.2794 3.88481 60.697 3.17671 61.4009 3.92292C62.998 5.6159 56.6377 5.68377 55.8696 5.73211C52.9719 5.91339 50.0656 5.98536 47.1964 6.43603C47.8931 8.33234 48.5947 10.2215 49.3523 12.0936Z" fill="black"/>
<path fill-rule="evenodd" clip-rule="evenodd" d="M41.4847 70.27C39.8426 71.4947 39.1056 70.3892 38.0735 69.0847C36.7348 67.3926 35.3587 65.7441 34.0927 63.9951C31.4304 60.3155 28.8717 56.5765 25.9899 53.0606C20.4942 46.3545 15.1079 39.5085 9.39975 32.9863C7.98114 31.3656 6.56559 29.7425 5.1764 28.096C3.73951 26.3933 1.60141 24.5719 0.52017 22.628C-0.422877 20.9326 0.820628 20.3961 2.30135 21.1538C4.21101 22.1304 5.93414 23.9698 7.4702 25.4273C13.7927 31.4257 19.4729 38.2994 24.5999 45.3276C30.5264 53.4509 36.3175 61.6367 41.4847 70.27Z" fill="black"/>
<path fill-rule="evenodd" clip-rule="evenodd" d="M151.11 62.2498C156.628 60.4898 162.433 59.7356 167.888 57.7963C159.04 51.953 149.553 58.5422 143.362 64.9262L151.11 62.2498ZM152.318 65.4816C149.601 66.2618 146.914 67.1477 144.126 67.6103C141.2 68.0957 140.09 69.8268 138.456 72.133C136.557 71.0551 139.15 66.7188 139.932 65.504C141.541 63.0025 143.981 60.8081 146.192 58.8448C150.903 54.6628 156.224 51.226 162.781 51.8059C165.212 52.0211 168.486 52.2033 170.349 53.9979C172.394 55.9685 170.879 58.3009 169.087 59.8259C164.716 63.5484 157.556 63.522 152.318 65.4816Z" fill="black"/>
<path fill-rule="evenodd" clip-rule="evenodd" d="M13.9784 15.0021C15.5352 13.8207 19.6745 20.8229 20.6397 22.07C22.9938 25.1143 24.8464 28.5553 26.894 31.8118C28.9076 35.0143 30.9997 38.1794 33.1674 41.2789C33.8382 42.2373 39.6105 48.8867 39.1732 49.4325C37.7269 51.2405 27.7683 36.71 26.7862 35.2973C22.2265 28.737 18.2103 21.7777 13.9784 15.0021Z" fill="black"/>
</svg>
