<svg width="388" height="248" viewBox="0 0 388 248" fill="none" xmlns="http://www.w3.org/2000/svg">
<path fill-rule="evenodd" clip-rule="evenodd" d="M83.7837 107.27C94.3907 110.105 104.883 113.437 115.401 116.583C116.584 116.937 116.581 116.996 117.639 116.357C120.518 114.62 123.451 112.97 126.418 111.389C135.367 106.621 144.567 102.805 154.42 100.378C161.405 98.6575 168.506 97.2932 175.629 96.2911C174.905 98.5248 173.499 100.853 171.762 102.427C170.415 103.646 168.58 104.312 166.915 104.966C161.968 106.911 156.788 108.27 151.926 110.432C146.966 112.636 143.833 117.219 142.892 122.536C142.715 123.531 142.726 123.682 143.541 124.184C144.454 124.747 145.564 125.076 146.57 125.42C154.654 128.179 163.178 129.877 171.536 131.552C175.973 132.441 180.427 133.267 184.903 133.933C187.681 134.346 190.616 134.9 193.437 134.735C205.529 134.028 212.695 119.608 216.235 109.854C227.16 115.784 239.694 119.574 251.93 121.402C266.769 123.62 285.46 123.742 297.189 112.785C302.775 107.567 306.205 100.501 308.725 93.3849C300.505 92.6787 292.321 91.4432 284.168 90.1935C282.745 89.9752 281.322 89.7531 279.899 89.527C279.327 89.436 278.448 89.114 277.863 89.1996C276.975 89.3287 275.827 90.2943 275.041 90.7221C269.008 94.0026 262.772 97.0109 256.3 99.3195C252.833 100.556 249.232 101.65 245.556 102.016C241.612 102.41 237.573 101.602 233.764 100.637C224.209 98.2161 214.214 94.1205 206.245 88.2182C204.306 90.9879 200.807 92.864 197.47 91.5275C193.816 90.0637 191.785 86.2249 189.826 83.0677C189.114 81.9181 187.769 81.9101 186.443 81.571C182.738 80.6239 178.987 79.8518 175.218 79.2111C162.841 77.1073 150.115 76.3937 137.623 77.8449C125.434 79.2612 113.433 83.2011 102.686 89.123C98.0101 91.6993 93.4578 94.6843 89.5729 98.3724C87.1191 100.702 84.2519 103.75 83.7837 107.27Z" fill="#FF5678"/>
<path fill-rule="evenodd" clip-rule="evenodd" d="M120.606 27.1652C124.432 28.4484 127.883 30.3339 131.254 32.5295C132.897 33.5993 134.541 34.8512 136.357 35.6088C137.969 36.2808 139.728 36.5866 141.384 37.1388C148.801 39.613 156.848 40.1106 164.391 37.732C172.079 35.3072 178.605 30.0998 186.556 28.4665C194.31 26.8736 202.196 27.2259 209.642 30.1105C213.259 31.5116 216.309 33.866 219.395 36.1587C222.353 38.3558 225.456 40.5229 227.745 43.456C229.994 46.3364 231.292 49.9208 232.283 53.4063C232.854 55.4165 233.118 57.4922 233.077 59.5831C233.048 61.0459 232.276 62.459 232.73 63.873C233.367 65.8561 234.295 67.3137 234.056 69.5215C233.863 71.2995 233.056 72.8317 231.795 74.0798C230.502 75.3601 228.954 76.2394 227.229 76.7949C225.925 77.215 225.513 77.1087 224.755 75.9695C222.633 77.8947 221.117 80.3276 218.458 81.5992C217.138 82.2308 215.786 82.535 214.331 82.6277C213.23 82.6978 212.219 82.7298 211.288 83.4011C210.311 84.106 206.741 87.2503 208.107 88.487C208.904 89.2084 210.763 89.3515 211.776 89.7661C213.194 90.3461 214.558 91.0574 215.845 91.8902C220.554 94.937 225.24 96.8377 230.685 98.2013C236.338 99.617 242.037 100.383 247.869 100.404C253.166 100.423 258.716 100.02 263.628 97.871C265.986 96.8396 268.262 95.4717 270.191 93.759C272.116 92.0501 273.297 89.6738 275.275 88.0834C276.555 87.0539 275.371 85.4691 274.976 84.056C274.171 81.1814 273.556 77.9089 273.311 74.9365C273.074 72.049 272.678 69.1698 272.166 66.3127C271.623 63.2837 270.493 60.4643 269.694 57.5061C269.106 55.3248 268.513 52.7647 269.196 50.5372C269.534 49.4322 270.285 48.2645 271.353 47.7372C272.307 47.2654 272.896 47.7162 273.751 47.6655C276.26 47.5176 278.198 48.5429 280.092 50.2204C281.115 51.1269 282.3 51.9206 283.275 52.87C284.033 53.6082 284.212 54.7994 285.021 55.4539C286.347 52.0611 287.737 47.7479 292.237 49.6883C295.798 51.2237 296.255 56.993 297.982 60.0006C298.953 59.1998 299.062 57.6217 299.44 56.5054C299.831 55.35 300.489 54.1297 301.418 53.3124C303.445 51.5273 305.919 52.2442 307.314 54.3825C308.06 55.5256 307.616 56.838 308.357 57.9669C309.092 59.0864 308.862 60.3946 309.162 61.6985C309.542 63.3512 310.002 64.9797 310.309 66.6511C310.45 67.4238 310.656 68.2951 310.62 69.0881C310.605 69.4169 310.34 69.9823 310.422 70.3068C310.528 70.7315 311.032 71.1135 311.216 71.5336C311.464 72.098 311.372 72.5085 311.4 73.0907C311.452 74.1389 311.731 74.9988 312.032 76.0341C312.788 78.6416 312.597 81.9422 311.476 84.4115C310.895 85.6915 310.488 86.6225 310.315 87.9923C310.203 88.8768 309.538 89.6825 309.578 90.6331C309.634 91.9561 313.166 93.9963 310.378 94.874C309.213 95.2405 308.964 95.049 308.646 96.382C308.33 97.7053 307.972 98.9928 307.454 100.253C306.356 102.929 304.731 105.324 303.199 107.761C301.54 110.398 299.798 112.946 297.347 114.913C295.073 116.736 292.468 118.22 289.874 119.533C284.407 122.298 278.325 123.842 272.188 123.692C265.643 123.533 259.005 124.152 252.519 123.038C245.879 121.898 239.4 120.01 232.787 118.744C229.816 118.175 227.046 117.555 224.343 116.15C221.601 114.725 218.865 113.27 216.355 111.454C214.627 115.605 213.696 119.932 211.218 123.75C209.055 127.083 206.446 130.217 203.253 132.607C200.133 134.942 196.058 136.688 192.13 136.838C190.931 136.884 189.089 136.357 188.229 137.262C187.798 137.714 187.754 138.614 187.584 139.195C187.293 140.185 186.872 141.15 186.638 142.155C186.284 143.679 187.712 143.703 188.964 144.322C190.642 145.151 192.281 146.058 193.904 146.991C195.562 147.946 197.142 149.043 198.803 149.983C200.228 150.789 201.7 151.411 203.073 152.325C206.317 154.484 209.871 155.925 213.354 157.634C217.083 159.464 220.709 161.506 224.373 163.461C231.632 167.334 238.912 171.353 245.764 175.917C248.963 178.048 252.038 180.266 255.319 182.281C258.378 184.16 261.871 186.361 263.819 189.445C265.338 191.85 267.52 192.989 270.031 194.3C271.512 195.072 272.427 195.219 273.629 193.955C274.809 192.714 275.949 191.48 277.194 190.296C282.298 185.443 286.664 180.131 290.92 174.543C294.08 170.394 298.413 165.413 304.216 166.322C305.956 166.594 307.111 167.406 308.398 168.547C309.271 169.322 310.849 169.828 311.431 170.831C311.767 171.411 311.908 172.153 312.246 172.761C312.6 173.396 313.041 174.016 313.278 174.711C313.678 175.887 312.814 177.755 313.676 178.713C314.306 179.415 313.72 181.066 313.548 181.859C313.23 183.325 312.96 184.812 312.457 186.228C312.061 187.342 311.672 188.869 310.838 189.739C310.094 190.515 309.221 190.439 309.415 191.782C308.61 191.514 307.918 193.446 307.691 193.933C307.08 195.242 306.414 196.317 305.431 197.402C302.946 200.145 300.101 202.001 296.878 203.744C295.702 204.38 293.264 205.265 292.991 206.735C292.729 208.146 293.533 209.293 292.968 210.801C291.793 213.938 289.15 217.245 286.994 219.777C285.054 222.053 283.173 223.575 280.062 223.04C277.307 222.567 274.58 221.158 272.287 219.595C269.525 217.713 266.599 216.297 263.616 214.803C262.148 214.068 260.679 213.39 259.407 212.333C258.225 211.352 257.198 210.246 255.828 209.517C254.851 208.997 253.576 208.629 253.169 207.473C252.725 206.212 253.536 205.425 254.226 204.521C254.689 203.915 254.945 203.821 254.545 203.333C254.226 202.945 253.349 202.615 252.909 202.378C251.844 201.805 250.78 201.304 249.641 201.934C248.371 202.636 247.503 204.087 246.551 205.142C245.411 206.406 244.13 207.557 242.88 208.709C240.399 210.995 237.681 213.043 235.258 215.383C234.704 215.918 233.613 217.274 232.699 217.017C232.023 216.828 232.379 216.426 232.03 216.117C231.656 215.784 231.338 215.78 230.858 215.42C229.666 214.525 229.302 212.809 228.051 211.883C226.765 210.93 225.177 210.246 223.785 209.462C217.431 205.884 211.24 202.025 205.432 197.602C202.52 195.385 199.769 192.979 196.948 190.649C195.62 189.553 194.274 188.351 192.797 187.46C191.45 186.648 189.953 186.08 188.581 185.301C185.641 183.631 182.496 182.353 179.586 180.629C178.218 179.818 177.204 178.73 175.931 177.827C174.817 177.037 173.889 176.568 173.06 175.417C172.666 176.287 171.584 175.153 171.194 174.887C170.887 174.676 170.493 174.528 170.208 174.288C169.921 174.047 169.748 173.509 169.53 173.341C169.048 172.969 168.488 173.054 167.84 172.821C166.975 172.51 165.834 171.682 165.169 171.049C164.708 170.611 165.459 170.955 164.681 170.419C164.32 170.169 163.699 170.102 163.292 169.837C162.326 169.209 161.44 168.403 160.518 167.71C158.848 166.455 156.687 165.313 155.739 163.357C150.646 167.547 145.728 172.095 139.88 175.231C134.232 178.259 127.698 179.635 121.667 181.725C115.461 183.875 109.193 186.036 102.883 187.858C99.8155 188.744 96.6522 189.38 93.5168 189.979C90.3006 190.593 87.1289 190.41 83.9017 190.757C82.3152 190.928 80.7268 190.873 79.1409 191.027C77.6804 191.168 76.264 191.54 74.8138 191.733C73.5354 191.904 72.0936 191.76 70.8641 192.108C69.9621 192.364 68.7707 193.27 68.1101 192.091C67.626 192.817 67.4723 192.474 66.8419 192.428C66.1697 192.378 65.9673 192.407 65.3092 192.534C64.239 192.738 63.0579 192.818 62.1494 191.975C61.7337 193.485 57.7057 192.112 57.2252 191.114C56.6841 192.712 51.7912 191.333 51.7203 189.833C51.6607 188.564 52.5021 186.738 52.8495 185.545C53.4164 183.598 54.1189 181.694 54.853 179.805C55.6297 177.808 56.426 175.817 57.2249 173.828C57.5758 172.955 57.9075 172.067 58.308 171.214C58.5046 170.796 59.0161 170.172 59.0077 169.689C58.9829 168.278 56.4586 168.178 55.3912 167.826C54.5839 167.559 53.7644 167.278 52.9977 166.909C52.4412 166.641 51.7734 166.026 51.1576 165.941C49.7464 165.745 50.0661 167.345 49.9127 168.328C49.7158 169.594 49.02 170.244 47.6826 170.254C46.1203 170.264 41.6649 167.572 40.8245 169.624C40.4303 170.586 40.5373 172.43 40.393 173.463C40.1558 175.156 40.2499 176.84 40.4813 178.528C40.8612 181.309 42.1152 184.826 40.7036 187.491C37.8854 192.813 28.113 189.605 24.9938 186.256C20.4002 181.322 20.5343 173.928 22.7354 167.954C23.8056 165.049 25.356 161.935 27.3828 159.573C28.2832 158.523 29.996 157.51 30.2932 156.067C30.54 154.871 29.6119 153.769 29.8072 152.542C30.0392 151.087 31.268 150.204 32.3212 149.322C33.4175 148.403 34.4842 147.402 35.7336 146.69C38.6247 145.044 41.9034 146.038 44.7777 147.246C47.9208 148.568 50.9317 150.34 53.7393 152.27C55.1292 153.225 56.3077 154.084 57.9558 154.546C59.2194 154.901 60.4959 155.249 61.7653 155.581C62.9632 155.895 63.9728 156.129 64.8136 155.091C65.7388 153.949 66.0453 153.488 67.6466 153.439C69.3521 153.387 71.0588 153.482 72.7626 153.547C73.1226 153.561 73.9398 153.449 74.2238 153.749C74.4767 154.017 74.1103 154.576 74.3459 154.746C74.7178 155.013 76.8306 152.022 77.0114 154.443C77.1267 153.268 78.3575 153.837 79.0436 153.992C79.2933 154.048 79.5424 154.115 79.7896 154.17C80.0577 154.08 80.2808 154.149 80.457 154.375C80.739 154.436 80.9298 154.328 81.0294 154.052C84.011 154.009 87.0187 154.197 90.0077 154.182C93.4643 154.163 96.9406 154.129 100.365 153.628C101.633 153.442 102.902 153.185 104.173 153.029C104.755 152.958 105.244 153.02 105.812 153.058C106.019 153.097 106.207 153.183 106.376 153.316C106.463 153.145 106.592 153.016 106.763 152.928C108.938 152.29 111.175 151.857 113.385 151.3C114.932 150.91 116.229 150.609 117.769 150.499L118.06 150.481L118.679 150.663C118.77 150.442 118.917 150.27 119.121 150.146C119.623 149.94 120.049 149.86 120.59 149.805C122.744 149.585 124.857 149.607 126.893 149.292C127.965 149.126 131.883 148.517 132.605 149.582C133.159 148.285 137.148 150.051 138.316 149.285C136.504 146.807 135.714 144.157 135.201 141.161C134.641 137.897 134.29 134.465 135.117 131.214C135.879 128.219 137.539 125.145 139.808 123.038C142.002 121 142.516 118.562 143.98 116.047C147.03 110.807 152.055 107.606 157.654 105.672C160.702 104.62 163.801 103.744 166.876 102.776C169.374 101.99 171.465 100.866 172.728 98.4626C162.094 98.4626 151.917 101.768 142.18 105.777C137.336 107.771 132.514 109.846 127.729 111.98C125.294 113.066 122.886 114.227 120.614 115.63L119.986 116.017C119.253 116.471 118.526 116.936 117.843 117.459C117.68 117.584 116.792 118.103 116.74 118.277C116.334 119.625 118.57 121.794 119.151 122.951C119.942 124.526 120.716 126.368 120.813 128.143C120.929 130.267 119.577 131.33 117.495 130.894C114.948 130.361 113.019 128.234 110.997 126.755C110.545 128.112 111.128 129.673 111.444 130.996C111.877 132.81 112.308 134.652 112.616 136.492C113.051 139.094 112.742 142.03 110.158 143.394C103.575 146.867 100.219 137.702 98.8826 133.124C97.9789 133.777 98.0843 136.169 97.918 137.17C97.5987 139.095 97.2322 141.161 96.3792 142.929C95.7256 144.283 94.6151 145.863 92.9806 146.009C91.2078 146.167 89.7789 144.64 88.9848 143.23C87.6126 140.796 87.2891 138.081 87.1808 135.352C87.1566 134.75 87.3306 129.183 86.7241 129.024C84.9407 132.226 83.9459 135.786 81.8508 138.84C80.0149 141.516 77.2521 143.331 74.7697 140.237C70.9254 135.445 72.1555 128.521 73.7304 123.13C74.6463 119.995 75.8928 117.003 77.5734 114.2C78.2701 113.037 79.1135 112.164 79.9788 111.139C80.6923 110.294 80.9669 109.897 80.6591 108.923C80.4799 108.355 80.3104 108.334 80.4702 107.706C80.5853 107.256 80.9301 106.701 81.127 106.283C81.6903 105.087 82.2817 103.907 82.9717 102.779C84.4467 100.369 86.4551 98.3637 88.5657 96.5044L88.7777 96.3182L88.7676 96.3276C88.6316 96.453 89.6191 95.6992 89.5987 95.6975L89.5934 95.6995L89.6193 95.6839C89.9836 95.4453 90.1223 94.661 90.5367 95.361L90.5668 95.4136C90.6316 94.3835 91.4972 93.798 92.2397 93.221C92.5162 93.0059 92.7927 92.7072 93.1285 92.5787C93.3622 92.4893 93.9055 92.5771 94.0747 92.4521C94.4037 92.2096 94.5645 91.7291 94.8771 91.4433C95.1904 91.1576 95.6228 91.0239 95.9793 90.8059C96.8529 90.2715 97.6557 89.6172 98.5081 89.0476C100.319 87.8373 102.209 86.7468 104.146 85.7532C108.221 83.6623 112.545 81.9799 116.873 80.4961C120.688 79.1883 124.641 77.9767 128.559 77.0241C132.58 76.046 136.806 76.2895 140.913 75.8875C149.284 75.0676 158.12 75.2329 166.486 76.0512C170.587 76.4523 174.664 77.0794 178.708 77.8634C182.63 78.6235 186.71 79.4886 190.194 81.5437C190.936 81.9816 192.278 83.3859 193.148 83.3343C193.881 83.291 194.517 81.9363 194.861 81.4026C195.679 80.1348 196.708 78.9697 197.403 77.6338C198.258 75.9885 198.697 74.1392 199.34 72.408C196.355 72.8204 193.22 73.0878 190.355 71.9417C187.76 70.9039 186.012 68.8298 184.074 66.9146C182.032 64.8973 179.845 63.5304 176.925 63.3451C173.612 63.1345 170.624 64.3258 167.577 65.4359C161.139 67.7816 154.702 70.3588 148.076 72.1281C144.838 72.9928 141.509 73.6755 138.153 73.8292C136.445 73.907 134.716 73.8302 133.026 74.1463C132.326 74.2771 132.116 74.3866 131.562 74.0766C131.637 74.1189 130.856 72.8188 130.702 73.3248C130.553 73.8124 130.797 74.1935 130.37 74.5609C129.869 74.9923 128.783 74.7825 128.203 74.7327C127.334 74.6585 126.641 74.363 125.805 74.1663C124.511 73.8625 123.062 74.0627 121.744 73.8967C121.132 73.8195 120.688 73.6648 120.137 73.495C119.56 73.3171 119.932 73.3397 119.337 73.2638C118.811 73.1966 118.512 73.266 117.875 73.0584C117.305 72.8727 116.778 72.7448 116.195 72.6086C115.661 72.4843 115.23 72.2605 114.734 72.1148C115.358 72.2979 113.932 71.7318 113.994 71.8825L114 71.8921L113.994 71.8869C113.84 71.7123 113.661 71.3612 113.354 71.3066L113.291 71.2998C114.299 72.8504 109.868 71.212 109.574 71.1225C107.125 70.3759 104.617 68.6813 102.058 68.5253C99.5593 68.3729 97.1362 70.0788 95.1249 71.344C92.696 72.8721 90.2781 74.4127 87.8585 75.9563C82.5102 79.3679 76.7187 82.4194 70.7165 84.4929C67.7971 85.5013 64.8055 86.3102 61.8442 87.1837C60.5091 87.5774 59.0512 87.7392 57.7753 88.3039C56.9129 88.6856 55.67 89.8278 54.7986 88.8161C54.4476 89.7012 52.7435 89.656 52.021 89.6834C51.9098 89.6876 52.0883 89.8998 51.834 89.882C51.4596 89.8555 51.3593 89.4913 51.0645 89.4151C50.4654 89.2607 50.4032 89.492 49.8096 89.7215C49.0384 90.0196 49.1853 89.7616 48.5034 89.6912C48.1132 89.6508 47.6997 89.8656 47.3088 89.8778C47.1499 89.883 46.9414 89.6179 46.7116 89.6218C46.4905 89.626 45.9723 89.8904 45.6797 89.9343C44.9469 90.0448 44.0845 89.9715 43.3456 89.9385C42.2882 89.8911 31.6979 88.9449 32.4578 86.7265C31.1836 87.9045 28.2278 85.9789 26.8994 85.3673C26.4047 85.1397 26.3728 84.9185 26.094 84.6618C26.1711 84.3534 26.0392 84.2158 25.6986 84.2488C25.6258 84.2404 25.5526 84.2323 25.4801 84.2239C24.8965 83.9258 24.6886 83.9326 24.2239 83.4098C23.6042 82.712 22.4634 82.081 22.1421 81.1717C22.056 80.9276 22.1476 80.5061 22.0599 80.3143C21.9478 80.0683 21.6526 80.0967 21.5842 79.8971C21.5604 79.8274 21.6745 79.3698 21.6661 79.3624C21.1302 78.9129 20.3748 79.126 19.7538 78.5864C18.0377 77.0942 17.0023 74.1011 16.5086 71.9757C15.2172 66.4166 14.7764 60.827 17.2826 55.5689C18.5008 53.0124 19.9923 50.5808 21.639 48.2807C22.0947 47.6445 22.572 46.8046 23.1534 46.2676C23.4144 46.0264 23.756 45.977 23.8833 45.8326C24.5626 45.0625 24.9149 44.0721 25.8253 43.3226C26.8388 42.4879 27.8381 41.6299 28.9577 40.9395C29.9851 40.3056 31.2645 39.8965 32.2064 39.3036C32.4649 39.1409 32.376 38.8841 32.6567 38.6907C32.9541 38.4857 33.3389 38.4698 33.676 38.37C34.0759 38.2522 34.5719 38.0349 34.987 37.999C35.762 37.9315 36.0221 38.154 36.6067 38.7056C36.6067 36.583 40.5074 36.2876 42.0852 36.2837C42.8132 36.2817 46.4715 35.9546 46.4013 37.0719C47.2347 35.9682 49.7683 36.7894 50.8705 37.1204C52.193 37.5172 53.0296 38.4882 53.8782 39.5254C54.0354 39.1967 54.193 38.8677 54.3506 38.5389C54.5913 38.7075 55.4054 38.9878 55.1431 39.4324C56.096 38.59 55.5588 39.2839 56.3751 39.4337C56.7338 39.4996 57.0428 39.3669 57.4202 39.322C57.4515 39.8212 57.2352 39.983 56.9268 40.3311C57.6661 40.345 60.5072 40.0492 58.4044 40.9802C58.6854 41.4839 60.0189 41.307 60.4878 41.3748C60.7363 41.4106 61.3554 41.4235 61.5036 41.6057C61.6013 41.7255 61.4295 42.0568 61.4514 42.0862C61.6519 42.3584 61.2355 42.4982 61.6467 42.577C61.7479 42.5964 62.0679 42.2744 62.1404 42.2757C62.6738 42.2841 62.2996 42.1779 62.8652 42.2596C63.0647 42.2883 63.4475 42.5163 63.7037 42.5689C67.5664 43.361 72.2879 40.3812 75.0939 38.0743C78.4474 35.3178 81.3665 32.3715 85.398 30.5823C89.2981 28.8518 93.6428 27.4871 97.7878 26.4974C105.453 24.6671 113.065 24.6351 120.606 27.1652ZM218.178 203.543C218.302 203.609 218.426 203.675 218.55 203.741C218.727 203.651 218.904 203.562 219.08 203.472C218.574 203.231 218.539 203.126 218.178 203.543ZM259.341 192.564C258.412 193.152 257.615 194.479 256.801 195.271C255.659 196.382 254.465 197.439 253.274 198.496C254.648 198.973 256.641 200.906 258.128 200.031C258.864 199.597 259.329 198.321 259.795 197.645C260.516 196.597 261.359 195.614 262.207 194.668C263.08 193.693 260.315 191.948 259.341 192.564ZM172.235 172.5C172.603 172.655 173.409 173.545 173.035 173.857C172.656 173.418 172.147 173.101 172.235 172.5ZM53.9777 158.406C53.3052 158.988 52.5469 160.204 52.0786 160.97C51.5511 161.832 51.5324 162.267 52.3381 162.842C53.8949 163.955 56.1566 164.281 57.9622 164.8C58.9261 165.077 60.1179 165.774 60.9368 164.893C61.7476 164.021 61.7495 162.397 62.1143 161.316C62.4098 160.44 62.726 159.572 63.0328 158.7C61.3309 158.872 59.6193 158.883 57.9461 158.502C56.7315 158.225 55.0519 157.476 53.9777 158.406ZM83.3739 111.788C81.9997 113.658 80.7738 115.639 79.6929 117.693C77.9044 121.093 76.5141 124.702 75.6334 128.445C75.0091 131.097 74.0971 134.824 75.5225 137.368C78.6275 142.909 84.9297 126.913 85.8917 125.24C86.4644 124.244 87.3532 123.175 88.3377 124.456C89.1453 125.507 88.8823 127.192 88.9197 128.43C89.0312 132.108 88.5188 136.514 89.9867 139.975C90.4685 141.111 91.7447 142.752 93.1852 142.236C94.4766 141.773 95.1217 139.544 95.521 138.396C96.784 134.765 97.6799 130.325 97.7208 126.482C97.7289 125.71 97.0376 120.606 98.82 121.735C99.986 122.474 99.9383 126.057 100.051 127.23C100.495 131.811 101.398 139.59 107.07 140.361C108.319 140.531 109.732 140.234 110.463 139.109C111.372 137.711 110.458 135.832 110.14 134.363C109.591 131.83 108.969 129.218 108.914 126.611C108.881 125.012 109.038 122.355 111.279 122.972C113.979 123.715 115.121 127.254 118.153 127.373C118.156 126.661 117.763 126.08 117.429 125.485C116.35 123.561 114.385 121.914 113.72 119.786C113.502 119.088 113.729 118.038 113.297 117.456C112.89 116.907 111.969 116.766 111.354 116.642C107.259 115.813 103.232 114.691 99.1555 113.735C94.7975 112.714 90.757 111.61 86.6758 109.812C84.8369 109.002 84.417 110.369 83.3739 111.788ZM181.09 140.48C181.691 140.766 182.287 141.064 182.896 141.334C183.425 141.57 183.632 141.382 183.843 140.887C183.461 140.808 181.312 140.043 181.09 140.48ZM155.283 78.4249C147.49 78.6539 139.871 78.7537 132.19 80.2362C128.517 80.9453 124.916 81.7668 121.313 82.7737C119.791 83.1989 118.45 83.6423 117.123 84.4906C116.629 84.8058 115.323 85.7955 115.123 84.6643C114.467 85.2944 113.187 87.2176 112.138 86.1491C111.954 86.9215 111.381 86.8976 110.822 87.1602C110.625 87.2525 110.517 87.5667 110.264 87.6807C110.2 87.7091 110.179 87.2677 110.086 87.2603C109.752 87.2338 109.488 87.939 109.296 88.1189C108.834 88.55 108.401 88.7473 107.788 88.9039C107.522 88.993 107.249 89.0502 106.969 89.0754C106.64 89.2107 106.443 89.1135 106.378 88.7838C105.924 88.7912 105.591 88.9566 105.116 89.1723C106.142 89.408 104.416 89.6673 104.186 89.6935C104.158 90.462 104.813 89.975 105.237 90.1342C105.041 91.0988 103.257 91.835 102.523 92.3081C102.397 92.0407 102.272 91.7733 102.146 91.5063C101.943 91.703 101.786 91.9293 101.673 92.1854C101.598 92.4954 101.378 92.6026 101.014 92.507C100.674 92.7776 100.623 92.6523 100.414 93.0334C100.198 93.4283 100.837 94.1968 99.9083 93.8659C99.9083 95.1775 98.6924 94.3825 98.9054 94.0422C97.9857 93.953 97.5932 95.64 97.6963 96.2981C97.2566 95.8612 96.9868 95.9165 96.545 96.2577L96.506 96.2882L96.5291 96.2717C96.869 96.0413 96.5195 96.9836 96.5499 96.9726L96.5539 96.9688C95.6199 98.202 95.7079 96.8212 95.997 96.0937C95.3641 96.3478 95.2442 97.0356 94.7363 97.4238C94.2842 97.7693 94.1569 97.6088 93.7679 97.6604C93.1688 97.7399 93.3496 97.2461 93.0869 97.9075C92.9758 98.1878 93.1443 98.6899 93.1443 98.9957C93.404 98.6399 93.3058 98.077 93.775 97.8732C93.6348 98.9043 91.6335 102.447 90.7921 100.359C89.9735 100.929 90.8755 101.554 90.3383 102.317C89.9387 101.931 89.843 101.316 89.8878 100.79C89.6368 101.124 89.6448 101.547 89.4482 101.885C89.2433 102.238 89.0286 102.267 88.9297 102.65C88.7799 103.233 89.2919 102.948 89.0216 103.566C88.8859 103.876 88.2504 104.148 88.0003 104.322C87.1244 104.934 86.2388 105.642 87.0889 106.659C88.4202 108.25 91.9281 108.432 93.812 108.699C97.8294 109.27 101.745 110.217 105.703 111.094C108.086 111.623 110.421 112.211 112.758 112.916C114.437 113.422 116.756 113.736 117.642 115.478C122.321 110.995 128.561 108.656 134.336 105.967C140.591 103.056 147.05 100.352 153.677 98.4061C159.552 96.6804 165.578 96.0255 171.647 95.4307C173.247 95.2738 175.713 94.8724 177.138 95.857C178.018 96.4647 178.059 97.385 177.385 98.1981C177.02 98.6386 176.627 98.5242 176.404 99.3096C176.231 99.9167 176.326 100.377 176.484 100.977C176.079 100.66 175.355 100.849 175.147 100.289L175.127 100.226L175.108 100.292C174.831 101.386 176.762 101.538 176.17 102.849L176.131 102.929C175.927 103.33 175.926 102.045 175.746 102.035C175.256 102.01 174.855 103.156 174.653 103.474C175.564 103.474 175.218 104.138 174.729 104.473C174.38 104.712 173.791 104.782 173.386 104.979C172.577 105.375 171.866 105.954 171.037 106.331C170.129 106.744 169.33 106.769 168.428 107.014C168.289 107.052 167.735 107.26 167.679 107.265C167.602 107.272 167.585 107.506 167.52 107.515C166.943 107.597 166.507 107.061 165.949 107.279C165.736 107.363 165.846 107.886 165.661 108.004C165.457 108.135 164.877 107.968 164.629 107.954C164.034 107.92 163.942 107.841 163.47 108.118C162.658 108.593 162.244 109.236 161.149 109.353C160.294 109.444 159.742 109.282 158.927 109.604C158.103 109.929 157.322 110.001 156.518 110.219C156.417 110.246 156.39 110.596 156.307 110.62C156.041 110.699 155.723 110.638 155.469 110.717C154.886 110.896 154.412 111.057 153.871 111.379C151.49 112.797 148.87 114.926 147.003 116.969C146.151 117.902 143.774 120.252 144.549 121.602C145.046 122.469 146.763 122.89 147.619 123.255C148.897 123.802 150.217 124.199 151.508 124.705C153.113 125.334 154.57 126.311 156.207 126.859C157.788 127.387 159.479 127.491 161.111 127.774C168.175 128.994 175.095 130.957 182.162 132.175C186.038 132.843 189.995 133.64 193.932 133.01C197.401 132.455 200.724 130.918 203.495 128.769C208.538 124.86 212.052 119.309 213.819 113.203C214.184 111.942 214.26 108.787 215.438 108.015C216.419 107.372 216.934 108.789 217.57 109.348C218.604 110.257 220.12 110.609 221.364 111.128C224.444 112.411 227.243 113.766 230.498 114.635C233.799 115.515 237.145 116.205 240.482 116.93C247.246 118.401 253.702 119.792 260.654 119.815C267.533 119.837 274.439 120.096 281.242 118.826C287.193 117.716 293.178 114.682 297.627 110.563C299.873 108.483 301.606 105.856 303.372 103.373C304.32 102.041 305.2 100.661 305.94 99.2017C306.484 98.1293 307.419 96.5764 307.515 95.3603C307.6 94.2737 306.966 94.428 305.883 94.317C304.216 94.1465 302.543 94.0383 300.875 93.8665C297.512 93.521 294.161 93.0802 290.799 92.7221C287.369 92.3565 283.961 91.8609 280.628 90.9502C279.632 90.678 278.895 90.3348 278.192 91.3048C277.738 91.9293 277.747 93.3543 276.8 92.3081C274.981 94.6102 272.32 95.9887 269.834 97.4334C267.144 98.9967 264.53 100.717 261.678 101.979C255.535 104.699 248.765 104.484 242.246 103.612C235.622 102.726 228.909 101.584 222.684 99.058C219.829 97.8997 217.376 96.1372 214.816 94.4555C213.61 93.6634 212.359 93.0117 211.079 92.3517C209.635 91.6077 208.753 90.5046 207.448 89.6447C206.568 92.5151 203.184 93.5019 200.511 93.6301C197.174 93.7903 194.477 92.1938 192.453 89.6008C190.772 87.4482 190.446 84.2284 187.845 83.0501C184.878 81.7061 181.4 81.172 178.225 80.5468C170.767 79.0792 162.883 78.2012 155.283 78.4249ZM194.844 100.493C195.683 100.869 198.122 103.68 196.187 103.721C194.957 103.747 194.234 102.202 192.876 102.436C192.267 102.541 191.356 102.752 191.206 103.223C190.833 104.396 192.556 105.151 193.3 105.477C194.447 105.979 195.391 106.484 196.017 107.632C196.978 109.396 197.231 112.249 194.981 113.038C193.309 113.624 191.22 113.169 189.569 112.708C188.178 112.32 187.116 110.878 187.757 109.446C187.938 109.041 188.424 108.325 188.99 108.593C189.439 108.807 189.22 109.21 189.358 109.572C189.911 111.02 194.044 113.084 194.995 110.895C196.156 108.227 191.744 107.423 190.397 106.531C188.656 105.378 188.61 103.405 189.938 101.897C191.102 100.576 193.153 99.7358 194.844 100.493ZM202.134 109.537C202.064 110.166 201.978 110.817 201.869 111.44C201.775 111.982 201.779 112.551 201.158 112.746C200.749 112.876 200.35 112.44 199.955 112.729C199.518 113.05 199.727 110.716 199.747 110.585C199.876 109.714 200.111 107.947 200.947 107.407C202.36 106.493 202.218 108.77 202.134 109.537ZM202.044 105.888C200.544 106.84 200.154 104.141 200.751 103.263C202.233 101.084 204.408 104.389 202.044 105.888ZM171.571 104.562C171.999 104.881 171.858 104.706 171.858 105.555C171.359 105.577 171.435 104.892 171.571 104.562ZM173.265 103.828C173.121 104.165 173.77 104.569 173.979 104.622C173.992 104.513 173.675 102.871 173.265 103.828ZM91.8826 98.8966C91.4838 99.4757 91.7092 99.8308 92.3434 99.6029L92.3957 99.5831L91.8826 98.8966ZM99.8977 93.3282L99.5181 93.489C99.3389 93.6605 99.1604 93.8316 98.9815 94.0028C99.5033 93.9011 99.8655 93.9795 99.8977 93.3282ZM102 92.5144C101.739 91.9803 100.841 93.0398 100.821 93.2878C101.03 93.1634 102.305 93.1363 102 92.5144ZM102.844 90.627C102.625 90.9347 102.67 91.1814 102.977 91.3671C103.232 91.0258 103.426 90.6528 103.557 90.2476C103.217 89.9999 102.965 90.3351 102.844 90.627ZM274.811 52.4989C274.153 52.7947 274.497 53.8132 274.561 54.3651C274.866 56.9936 275.351 59.596 275.652 62.2239C276.075 65.92 276.134 69.6607 276.827 73.3238C277.458 76.6644 278.523 79.9084 279.085 83.2645C279.462 85.5097 278.744 88.104 281.416 88.7851C283.82 89.3977 286.56 89.4309 289.024 89.7002C292.198 90.047 295.378 90.2175 298.566 90.3722C300.075 90.4452 301.631 90.4642 303.125 90.6935C304.005 90.8285 305.101 91.4133 305.778 90.597C306.437 89.8032 306.438 87.7831 306.644 86.7698C306.915 85.4319 307.159 84.087 307.292 82.7272C307.593 79.6485 307.15 76.5998 306.743 73.5515C306.305 70.2655 305.969 66.9656 305.515 63.6828C305.223 61.5668 305.256 58.1497 303.803 56.4418C302.478 60.4068 302.119 64.6167 302.052 68.7743C302.038 69.6668 301.455 74.7963 299.906 72.2957C299.475 71.6001 299.468 71.2029 298.799 70.6149C298.109 70.0088 297.867 69.5241 297.634 68.6063C297.211 66.944 297.143 65.4821 296.229 63.9873C294.368 60.9448 293.614 57.178 290.842 54.7219C290.815 57.5768 290.403 60.6645 290.933 63.4846C291.266 65.2567 292.631 67.8075 291.505 69.5606C290.944 70.435 290.62 70.1741 289.959 69.7349C289.536 69.4534 289.601 69.3223 289.07 69.0403C288.563 68.7717 288.164 68.7843 287.684 68.409C285.986 67.0812 285.851 64.774 285.296 62.8636C284.071 58.6463 279.834 56.0417 276.59 53.4331C276.237 53.1493 275.353 52.2551 274.811 52.4989ZM210.794 61.043C208.306 62.0382 205.742 62.4173 203.099 61.8551C203.101 62.437 203.939 63.3825 203.292 63.7171C203.137 63.7968 202.257 63.4148 202.085 63.3703C201.132 63.1226 199.847 62.6967 198.851 62.8998C197.797 63.1148 197.833 63.7991 198.522 64.5741C199.489 65.662 201.917 65.7062 201.944 67.5113C201.956 68.2918 201.476 69.2696 201.373 70.0746C201.22 71.2785 201.052 72.4726 200.77 73.6548C200.284 75.6873 199.499 77.6206 198.563 79.4848C197.757 81.0906 196.777 82.764 195.275 83.8135C194.296 84.4974 194.673 84.1887 194.866 85.1968C194.994 85.872 194.973 86.3748 194.102 86.2082C193.936 86.1569 193.77 86.1058 193.603 86.0545C195.644 89.4051 200.804 91.517 204.337 89.2811C202.847 88.0779 204.869 85.9802 205.723 85.0916C207.001 83.7602 208.341 82.2283 209.712 81.0128C211.811 79.1522 214.559 80.0576 217.042 79.2749C219.555 78.4827 221.384 76.6954 223.008 74.6978C224.456 72.9189 226.374 70.7418 226.57 68.3338C226.608 67.8623 226.38 67.3095 226.463 66.8636C226.547 66.4089 226.822 66.3498 226.965 66.0521C227.259 65.4395 227.33 64.8088 227.377 64.1075C227.529 61.8186 226.803 61.4592 224.658 60.868C223.408 60.5231 222.141 60.2525 220.889 59.9157C219.694 59.5944 218.628 58.976 217.45 58.6311C214.969 57.9049 212.978 60.1692 210.794 61.043ZM217.186 75.4262C219.159 76.6255 216.049 77.3934 214.9 76.8632C213.35 76.147 216.084 74.7565 217.186 75.4262ZM220.902 65.4544C222.693 67.5982 224.683 71.9556 220.762 72.8375C219.551 73.1097 217.679 73.5496 216.461 73.216C214.723 72.739 215.177 70.4657 216.911 70.3659C217.938 70.3068 220.296 71.1212 220.906 69.9255C221.238 69.277 220.484 68.2466 220.37 67.5995C220.223 66.7667 220.358 66.1012 220.902 65.4544ZM114 71.8921L114.001 71.8945C114.007 71.9033 114.017 71.9138 114.031 71.9263L114.038 71.9319L114.025 71.9194L114 71.8921ZM224.449 66.2208C225.693 66.2179 225.076 68.8648 224.459 69.3169C223.351 70.1281 222.879 66.224 224.449 66.2208ZM216.251 68.2165C214.807 68.3918 215.133 64.9315 216.447 64.8252C218.173 64.6854 217.919 68.014 216.251 68.2165ZM228.734 62.4732C228.561 62.8258 228.693 66.2591 229.107 66.324C229.218 65.4854 229.157 64.6422 229.145 63.7998L229.143 63.587C229.153 63.6002 229.221 61.4783 228.734 62.4732Z" fill="black"/>
<path fill-rule="evenodd" clip-rule="evenodd" d="M361.237 131.788C368.428 132.358 375.512 132.919 382.704 133.375C381.463 123.517 380.221 113.658 378.98 103.799C374.819 104.763 370.658 105.726 366.497 106.688C364.53 107.143 361.513 107.263 359.772 108.245C359.121 108.395 358.469 108.546 357.819 108.697C357.801 109.976 357.787 111.256 357.775 112.536C357.726 116.322 357.617 120.104 357.46 123.887C357.394 125.472 356.841 127.793 357.22 129.363C356.547 130.951 356.975 131.626 358.508 131.388C359.418 131.521 360.327 131.655 361.237 131.788ZM356.286 138.915C350.649 136.108 352.19 127.532 352.199 122.073C352.206 118.6 352.451 115.15 352.542 111.682C352.605 109.298 352.06 106.348 352.88 104.045C354.339 99.948 361.478 100.059 365.149 100.346C367.871 100.558 370.149 100.421 372.939 100.242C374.314 100.154 375.848 100.416 377.199 100.01C377.491 99.922 380.24 98.005 380.118 98C385.049 98.189 385.115 110.012 385.435 113.012C386.226 120.407 386.942 127.815 387.586 135.225C387.757 137.186 388.486 139.403 386.623 140.522C384.943 141.532 380.49 140.534 378.632 140.477C371.142 140.251 363.694 139.083 356.286 138.915Z" fill="black"/>
</svg>
