<svg width="222" height="167" viewBox="0 0 222 167" fill="none" xmlns="http://www.w3.org/2000/svg">
<path fill-rule="evenodd" clip-rule="evenodd" d="M56.3638 72.2345C63.4994 74.143 70.5577 76.3871 77.6335 78.5052C78.4296 78.7435 78.4274 78.7836 79.1394 78.3534C81.0758 77.1836 83.0491 76.0724 85.0451 75.0078C91.0654 71.797 97.254 69.2278 103.883 67.5932C108.581 66.4347 113.359 65.516 118.151 64.8412C117.664 66.3453 116.718 67.9133 115.549 68.9727C114.643 69.7938 113.408 70.2426 112.288 70.683C108.96 71.9922 105.476 72.9079 102.205 74.3633C98.8685 75.8478 96.7608 78.9338 96.1274 82.5143C96.0088 83.1841 96.0159 83.286 96.564 83.624C97.1782 84.003 97.9248 84.2248 98.6021 84.4561C104.04 86.3138 109.774 87.4578 115.397 88.5852C118.382 89.1839 121.378 89.7401 124.389 90.1885C126.258 90.4668 128.233 90.8402 130.131 90.7291C138.265 90.2531 143.086 80.5423 145.467 73.974C152.817 77.9673 161.249 80.5194 169.481 81.7509C179.463 83.2441 192.037 83.326 199.927 75.9483C203.685 72.4343 205.993 67.6763 207.688 62.8842C202.158 62.4086 196.652 61.5767 191.168 60.7352C190.21 60.5882 189.253 60.4386 188.296 60.2863C187.911 60.225 187.32 60.0082 186.926 60.0658C186.329 60.1528 185.557 60.803 185.028 61.0911C180.969 63.3002 176.774 65.3259 172.42 66.8805C170.088 67.7133 167.666 68.45 165.192 68.6966C162.539 68.9614 159.822 68.4172 157.26 67.7674C150.832 66.1374 144.108 63.3795 138.747 59.405C137.443 61.2701 135.089 62.5335 132.844 61.6334C130.386 60.6477 129.019 58.0627 127.702 55.9367C127.222 55.1626 126.318 55.1572 125.425 54.9289C122.933 54.2911 120.41 53.7712 117.874 53.3398C109.548 51.9231 100.987 51.4425 92.5832 52.4197C84.383 53.3735 76.31 56.0265 69.0796 60.0143C65.9343 61.7491 62.8718 63.7592 60.2583 66.2427C58.6076 67.8111 56.6788 69.8638 56.3638 72.2345Z" fill="#FF5678"/>
<path fill-rule="evenodd" clip-rule="evenodd" d="M81.1351 18.2927C83.7087 19.1568 86.0303 20.4265 88.2985 21.9049C89.4037 22.6253 90.5094 23.4684 91.7308 23.9785C92.8152 24.431 93.9989 24.6369 95.1126 25.0088C100.102 26.6749 105.516 27.0099 110.59 25.4082C115.762 23.7754 120.152 20.2688 125.501 19.169C130.718 18.0963 136.023 18.3336 141.032 20.276C143.465 21.2195 145.517 22.8049 147.593 24.3488C149.583 25.8283 151.67 27.2876 153.21 29.2627C154.723 31.2023 155.597 33.616 156.263 35.9631C156.647 37.3168 156.825 38.7145 156.797 40.1225C156.778 41.1075 156.258 42.0591 156.564 43.0113C156.993 44.3466 157.616 45.3282 157.456 46.8149C157.326 48.0121 156.783 49.0439 155.935 49.8844C155.065 50.7465 154.023 51.3387 152.863 51.7127C151.986 51.9956 151.709 51.924 151.199 51.1569C149.771 52.4533 148.751 54.0915 146.962 54.9479C146.074 55.3732 145.165 55.578 144.187 55.6404C143.445 55.6876 142.765 55.7091 142.139 56.1612C141.482 56.6359 139.08 58.7532 139.999 59.586C140.535 60.0718 141.786 60.1681 142.468 60.4473C143.422 60.8379 144.339 61.3169 145.205 61.8777C148.372 63.9293 151.525 65.2092 155.188 66.1275C158.991 67.0808 162.825 67.5966 166.748 67.6107C170.312 67.6238 174.045 67.3522 177.35 65.9051C178.936 65.2105 180.467 64.2894 181.765 63.1361C183.06 61.9853 183.855 60.3851 185.185 59.3142C186.046 58.621 185.25 57.5538 184.984 56.6022C184.442 54.6665 184.028 52.4629 183.864 50.4613C183.704 48.5168 183.438 46.5781 183.093 44.6541C182.728 42.6144 181.968 40.7159 181.431 38.7239C181.035 37.255 180.636 35.5311 181.095 34.0311C181.323 33.287 181.828 32.5007 182.546 32.1456C183.189 31.8279 183.584 32.1315 184.16 32.0974C185.848 31.9978 187.151 32.6882 188.425 33.8178C189.114 34.4282 189.911 34.9627 190.567 35.602C191.077 36.099 191.197 36.9012 191.741 37.342C192.634 35.0572 193.569 32.1528 196.596 33.4594C198.991 34.4934 199.299 38.3783 200.461 40.4036C201.114 39.8644 201.187 38.8017 201.442 38.05C201.704 37.272 202.147 36.4502 202.772 35.8999C204.136 34.6978 205.8 35.1805 206.739 36.6205C207.241 37.3902 206.942 38.274 207.44 39.0342C207.934 39.788 207.78 40.6689 207.982 41.547C208.238 42.6599 208.547 43.7565 208.753 44.882C208.848 45.4023 208.987 45.989 208.963 46.5231C208.953 46.7444 208.774 47.1252 208.829 47.3437C208.901 47.6297 209.239 47.8869 209.363 48.1698C209.531 48.5499 209.469 48.8263 209.488 49.2183C209.522 49.9242 209.71 50.5032 209.912 51.2004C210.421 52.9563 210.292 55.1788 209.538 56.8416C209.148 57.7036 208.874 58.3305 208.757 59.2529C208.682 59.8485 208.235 60.391 208.262 61.0312C208.299 61.9221 210.675 63.2959 208.8 63.8869C208.016 64.1337 207.848 64.0048 207.634 64.9024C207.422 65.7935 207.181 66.6605 206.833 67.5094C206.094 69.3109 205.001 70.924 203.97 72.5646C202.854 74.3405 201.682 76.0566 200.033 77.3809C198.504 78.6088 196.751 79.6078 195.006 80.4917C191.329 82.3539 187.237 83.3935 183.108 83.2928C178.705 83.1852 174.24 83.6025 169.877 82.8525C165.409 82.0845 161.051 80.8133 156.602 79.9607C154.603 79.5775 152.74 79.1598 150.922 78.2139C149.077 77.2545 147.236 76.2747 145.548 75.0514C144.385 77.8466 143.759 80.7604 142.092 83.332C140.637 85.5763 138.882 87.6864 136.733 89.2957C134.635 90.8681 131.893 92.044 129.251 92.1451C128.445 92.1758 127.205 91.8209 126.627 92.4302C126.337 92.7351 126.308 93.3409 126.193 93.7323C125.997 94.3986 125.714 95.0485 125.557 95.7254C125.318 96.7518 126.279 96.7677 127.121 97.1843C128.25 97.7431 129.353 98.3535 130.444 98.9821C131.56 99.6247 132.623 100.364 133.74 100.996C134.699 101.539 135.689 101.958 136.613 102.574C138.795 104.028 141.186 104.998 143.529 106.149C146.037 107.381 148.477 108.756 150.942 110.072C155.825 112.68 160.722 115.387 165.332 118.46C167.484 119.895 169.553 121.389 171.76 122.746C173.818 124.011 176.168 125.493 177.478 127.57C178.5 129.189 179.968 129.957 181.657 130.839C182.653 131.359 183.269 131.458 184.078 130.606C184.872 129.771 185.639 128.94 186.476 128.143C189.909 124.875 192.847 121.298 195.71 117.535C197.836 114.741 200.75 111.387 204.654 111.999C205.825 112.183 206.602 112.729 207.468 113.497C208.055 114.019 209.116 114.36 209.508 115.036C209.734 115.426 209.829 115.926 210.056 116.335C210.295 116.763 210.591 117.18 210.75 117.648C211.02 118.44 210.439 119.698 211.018 120.343C211.442 120.815 211.048 121.928 210.932 122.461C210.718 123.449 210.537 124.45 210.198 125.404C209.932 126.154 209.67 127.182 209.109 127.768C208.609 128.29 208.021 128.239 208.152 129.144C207.61 128.963 207.145 130.264 206.992 130.592C206.581 131.473 206.133 132.198 205.472 132.928C203.8 134.775 201.886 136.025 199.718 137.199C198.927 137.627 197.287 138.223 197.103 139.212C196.927 140.163 197.468 140.935 197.088 141.951C196.297 144.063 194.519 146.29 193.069 147.995C191.764 149.528 190.498 150.552 188.406 150.192C186.552 149.874 184.718 148.925 183.175 147.872C181.317 146.605 179.348 145.652 177.342 144.646C176.354 144.151 175.366 143.694 174.51 142.982C173.715 142.321 173.024 141.577 172.102 141.086C171.445 140.736 170.588 140.488 170.314 139.71C170.015 138.861 170.561 138.331 171.024 137.722C171.336 137.313 171.508 137.25 171.239 136.922C171.024 136.66 170.435 136.438 170.139 136.279C169.422 135.893 168.706 135.556 167.94 135.98C167.086 136.452 166.502 137.43 165.862 138.14C165.095 138.991 164.233 139.766 163.392 140.542C161.723 142.081 159.895 143.461 158.265 145.036C157.892 145.396 157.158 146.309 156.543 146.137C156.088 146.009 156.327 145.739 156.093 145.53C155.841 145.306 155.627 145.304 155.305 145.061C154.502 144.459 154.257 143.303 153.416 142.679C152.551 142.038 151.483 141.577 150.546 141.049C146.271 138.64 142.107 136.041 138.2 133.063C136.241 131.57 134.39 129.949 132.492 128.381C131.599 127.642 130.693 126.833 129.7 126.233C128.794 125.686 127.787 125.304 126.864 124.779C124.886 123.655 122.77 122.794 120.813 121.633C119.892 121.087 119.21 120.354 118.354 119.746C117.604 119.214 116.98 118.899 116.422 118.124C116.157 118.709 115.43 117.946 115.167 117.766C114.96 117.625 114.695 117.525 114.504 117.363C114.311 117.201 114.194 116.839 114.047 116.726C113.723 116.475 113.346 116.532 112.911 116.376C112.329 116.166 111.561 115.608 111.114 115.182C110.804 114.887 111.309 115.119 110.786 114.758C110.542 114.589 110.124 114.544 109.851 114.366C109.201 113.943 108.605 113.4 107.985 112.934C106.861 112.089 105.408 111.32 104.77 110.002C101.344 112.824 98.0355 115.886 94.1012 117.998C90.3012 120.038 85.9059 120.964 81.8485 122.371C77.6737 123.819 73.4572 125.274 69.2123 126.501C67.1486 127.098 65.0205 127.526 62.9113 127.929C60.7477 128.343 58.614 128.22 56.443 128.454C55.3757 128.568 54.3071 128.531 53.2402 128.635C52.2577 128.73 51.3049 128.981 50.3293 129.111C49.4693 129.226 48.4993 129.129 47.6722 129.363C47.0654 129.535 46.2639 130.145 45.8195 129.352C45.4939 129.841 45.3905 129.61 44.9664 129.579C44.5142 129.545 44.378 129.565 43.9353 129.65C43.2153 129.788 42.4208 129.841 41.8096 129.273C41.53 130.29 38.8202 129.366 38.497 128.694C38.133 129.77 34.8413 128.841 34.7936 127.831C34.7535 126.976 35.3196 125.747 35.5533 124.944C35.9346 123.633 36.4073 122.35 36.9011 121.079C37.4236 119.734 37.9593 118.393 38.4967 117.054C38.7328 116.465 38.9559 115.868 39.2254 115.294C39.3576 115.012 39.7017 114.592 39.6961 114.267C39.6794 113.316 37.9812 113.249 37.2632 113.012C36.7201 112.832 36.1688 112.643 35.653 112.395C35.2786 112.214 34.8294 111.8 34.4151 111.742C33.4658 111.61 33.6808 112.688 33.5776 113.35C33.4452 114.202 32.9771 114.64 32.0774 114.647C31.0264 114.654 28.0291 112.841 27.4637 114.223C27.1986 114.87 27.2706 116.112 27.1734 116.807C27.0139 117.948 27.0772 119.082 27.2328 120.219C27.4885 122.091 28.332 124.459 27.3824 126.254C25.4866 129.838 18.9124 127.678 16.814 125.422C13.7238 122.1 13.814 117.121 15.2947 113.098C16.0147 111.142 17.0577 109.045 18.4211 107.454C19.0269 106.747 20.1791 106.065 20.379 105.094C20.5451 104.288 19.9207 103.546 20.0521 102.72C20.2082 101.74 21.0348 101.146 21.7433 100.551C22.4809 99.9326 23.1985 99.2583 24.039 98.7791C25.9839 97.6707 28.1896 98.3398 30.1232 99.1537C32.2376 100.044 34.2631 101.237 36.1519 102.537C37.0869 103.18 37.8797 103.758 38.9884 104.069C39.8385 104.308 40.6972 104.543 41.5512 104.766C42.357 104.978 43.0363 105.135 43.6019 104.436C44.2243 103.667 44.4305 103.357 45.5077 103.324C46.655 103.289 47.8032 103.353 48.9494 103.397C49.1916 103.406 49.7414 103.33 49.9324 103.533C50.1025 103.713 49.856 104.089 50.0145 104.204C50.2647 104.384 51.686 102.37 51.8076 104C51.8853 103.209 52.7132 103.592 53.1748 103.696C53.3428 103.734 53.5104 103.779 53.6767 103.816C53.857 103.755 54.007 103.802 54.1256 103.954C54.3153 103.995 54.4437 103.922 54.5107 103.737C56.5165 103.708 58.5398 103.834 60.5506 103.824C62.876 103.811 65.2146 103.789 67.518 103.451C68.3714 103.326 69.2251 103.153 70.0799 103.048C70.4717 103 70.8004 103.042 71.1826 103.067C71.322 103.094 71.4484 103.152 71.562 103.241C71.6203 103.126 71.7072 103.039 71.8226 102.979C73.2855 102.55 74.7905 102.258 76.2771 101.883C77.3177 101.621 78.1901 101.418 79.2261 101.344L79.4224 101.332L79.8386 101.455C79.8995 101.306 79.9986 101.19 80.1358 101.106C80.4736 100.968 80.7604 100.914 81.1244 100.877C82.5733 100.728 83.9948 100.744 85.3643 100.531C86.0856 100.419 88.721 100.009 89.2071 100.727C89.5797 99.8532 92.2632 101.042 93.0491 100.526C91.8297 98.8582 91.2983 97.0732 90.9531 95.0559C90.577 92.8584 90.3407 90.5467 90.897 88.3579C91.4095 86.341 92.5262 84.2709 94.0525 82.8521C95.5284 81.4798 95.8746 79.8383 96.8596 78.1448C98.9113 74.616 102.292 72.4602 106.058 71.1584C108.109 70.4495 110.194 69.8596 112.262 69.2081C113.942 68.679 115.349 67.9219 116.199 66.3034C109.045 66.3034 102.199 68.529 95.6483 71.2286C92.3896 72.5714 89.1455 73.9687 85.9269 75.4058C84.2886 76.1371 82.6685 76.9192 81.14 77.8636L80.7177 78.1246C80.2251 78.4303 79.7356 78.743 79.2762 79.0954C79.1668 79.1796 78.5691 79.5293 78.5339 79.646C78.2608 80.5541 79.7656 82.0145 80.1562 82.7934C80.688 83.8541 81.209 85.0944 81.2745 86.2901C81.3523 87.7203 80.443 88.4359 79.0419 88.1424C77.3283 87.7834 76.031 86.351 74.6704 85.3551C74.3669 86.2691 74.7588 87.3204 74.9713 88.2111C75.2627 89.4327 75.5523 90.6728 75.7596 91.9123C76.0525 93.6642 75.8444 95.6413 74.1065 96.5593C69.678 98.8984 67.4203 92.7268 66.521 89.6438C65.9131 90.0835 65.984 91.6946 65.8721 92.3682C65.6573 93.6645 65.4108 95.0561 64.8369 96.2464C64.3973 97.158 63.6502 98.2224 62.5506 98.3207C61.358 98.4272 60.3967 97.3987 59.8625 96.4495C58.9394 94.81 58.7217 92.9819 58.6489 91.144C58.6326 90.7391 58.7497 86.9901 58.3417 86.8833C57.1419 89.0393 56.4727 91.4367 55.0633 93.4929C53.8282 95.2949 51.9696 96.5169 50.2996 94.4336C47.7134 91.2071 48.541 86.5443 49.6004 82.9143C50.2166 80.8033 51.0551 78.7882 52.1857 76.9005C52.6545 76.1175 53.2218 75.53 53.8039 74.8398C54.2839 74.2705 54.4686 74.0033 54.2616 73.3472C54.141 72.9647 54.027 72.9508 54.1345 72.5279C54.2119 72.2245 54.4439 71.8512 54.5764 71.5694C54.9553 70.7641 55.3531 69.9696 55.8173 69.2098C56.8096 67.5869 58.1607 66.2368 59.5806 64.9848L59.7232 64.8594L59.7164 64.8657C59.6249 64.9502 60.2892 64.4426 60.2755 64.4414L60.2719 64.4428L60.2894 64.4323C60.5344 64.2717 60.6277 63.7435 60.9065 64.2149L60.9268 64.2503C60.9703 63.5566 61.5527 63.1624 62.0522 62.7738C62.2382 62.629 62.4242 62.4278 62.6501 62.3413C62.8073 62.2811 63.1728 62.3402 63.2866 62.2561C63.508 62.0928 63.6161 61.7692 63.8264 61.5768C64.0372 61.3843 64.3281 61.2943 64.5679 61.1475C65.1556 60.7876 65.6957 60.3471 66.2691 59.9635C67.487 59.1485 68.7588 58.4142 70.0617 57.7451C72.8029 56.3371 75.7123 55.2042 78.6239 54.2051C81.1899 53.3244 83.8496 52.5085 86.4852 51.8671C89.1904 51.2084 92.0334 51.3724 94.7963 51.1016C100.427 50.5495 106.371 50.6609 112 51.2119C114.758 51.482 117.501 51.9042 120.222 52.4322C122.86 52.9441 125.605 53.5266 127.949 54.9105C128.448 55.2053 129.35 56.151 129.936 56.1162C130.429 56.0871 130.857 55.1749 131.088 54.8154C131.639 53.9617 132.331 53.1772 132.798 52.2776C133.374 51.1697 133.669 49.9244 134.102 48.7586C132.094 49.0363 129.984 49.2164 128.057 48.4446C126.311 47.7458 125.135 46.3491 123.831 45.0594C122.458 43.701 120.987 42.7806 119.022 42.6558C116.794 42.514 114.784 43.3161 112.734 44.0637C108.402 45.6433 104.072 47.3787 99.6148 48.5701C97.4365 49.1524 95.1967 49.6121 92.9394 49.7156C91.7902 49.768 90.6271 49.7163 89.4904 49.9292C89.0191 50.0172 88.8777 50.0909 88.5051 49.8822C88.5556 49.9107 88.0307 49.0352 87.9267 49.376C87.8263 49.7043 87.9904 49.9609 87.7036 50.2084C87.3667 50.4989 86.6356 50.3575 86.2454 50.324C85.6609 50.274 85.195 50.0751 84.6322 49.9426C83.7622 49.738 82.7873 49.8728 81.9008 49.7611C81.4889 49.7091 81.1899 49.6049 80.8194 49.4906C80.4311 49.3708 80.6813 49.386 80.2813 49.3349C79.9271 49.2896 79.7265 49.3364 79.2977 49.1966C78.9142 49.0715 78.5597 48.9854 78.1675 48.8937C77.8083 48.81 77.5185 48.6593 77.1844 48.5612C77.6042 48.6845 76.6452 48.3033 76.6868 48.4047L76.6906 48.4112L76.6871 48.4077C76.5831 48.2901 76.4625 48.0537 76.2564 48.017L76.214 48.0124C76.8921 49.0565 73.9109 47.9532 73.7134 47.893C72.066 47.3902 70.3785 46.2491 68.6569 46.144C66.9763 46.0414 65.3462 47.1902 63.9931 48.0422C62.3591 49.0711 60.7325 50.1086 59.1048 51.148C55.5068 53.4453 51.6108 55.5002 47.5729 56.8964C45.609 57.5755 43.5965 58.1202 41.6043 58.7084C40.7061 58.9735 39.7253 59.0824 38.867 59.4627C38.2869 59.7198 37.4507 60.4889 36.8645 59.8076C36.6284 60.4036 35.482 60.3732 34.9959 60.3917C34.9211 60.3945 35.0412 60.5374 34.8702 60.5254C34.6183 60.5076 34.5508 60.2623 34.3525 60.211C33.9494 60.107 33.9076 60.2627 33.5083 60.4173C32.9895 60.618 33.0883 60.4443 32.6296 60.3969C32.367 60.3697 32.0889 60.5143 31.8259 60.5226C31.719 60.526 31.5788 60.3475 31.4242 60.3501C31.2755 60.353 30.9269 60.5311 30.73 60.5606C30.237 60.635 29.6569 60.5856 29.1597 60.5635C28.4484 60.5315 21.324 59.8944 21.8353 58.4005C20.978 59.1937 18.9896 57.8971 18.0959 57.4853C17.7632 57.332 17.7417 57.183 17.5542 57.0101C17.606 56.8025 17.5173 56.7098 17.2882 56.732C17.2392 56.7264 17.1899 56.7209 17.1412 56.7153C16.7486 56.5146 16.6087 56.5191 16.2961 56.1671C15.8792 55.6972 15.1117 55.2723 14.8956 54.66C14.8377 54.4956 14.8993 54.2118 14.8403 54.0826C14.7649 53.9169 14.5663 53.9361 14.5203 53.8017C14.5043 53.7547 14.581 53.4466 14.5754 53.4416C14.2148 53.1389 13.7067 53.2824 13.2889 52.9191C12.1345 51.9142 11.4379 49.8987 11.1058 48.4675C10.2371 44.7241 9.94048 40.9601 11.6265 37.4194C12.446 35.6979 13.4493 34.0605 14.5572 32.5116C14.8637 32.0832 15.1848 31.5176 15.5759 31.156C15.7515 30.9936 15.9813 30.9603 16.0669 30.8631C16.524 30.3445 16.7609 29.6776 17.3734 29.1729C18.0552 28.6108 18.7275 28.033 19.4806 27.5681C20.1718 27.1413 21.0325 26.8658 21.6662 26.4665C21.84 26.3569 21.7802 26.1841 21.969 26.0538C22.1691 25.9157 22.428 25.9051 22.6547 25.8379C22.9238 25.7585 23.2574 25.6122 23.5367 25.588C24.0581 25.5426 24.233 25.6924 24.6263 26.0638C24.6263 24.6345 27.2504 24.4356 28.3118 24.433C28.8016 24.4317 31.2627 24.2114 31.2154 24.9638C31.776 24.2205 33.4805 24.7735 34.2219 24.9964C35.1117 25.2636 35.6745 25.9175 36.2453 26.6159C36.3511 26.3946 36.4571 26.173 36.5631 25.9516C36.7251 26.0651 37.2727 26.2539 37.0962 26.5533C37.7373 25.986 37.3759 26.4533 37.9251 26.5542C38.1663 26.5985 38.3743 26.5092 38.6281 26.4789C38.6492 26.8151 38.5037 26.924 38.2962 27.1585C38.7935 27.1678 40.7048 26.9686 39.2902 27.5955C39.4793 27.9347 40.3764 27.8156 40.6918 27.8612C40.859 27.8854 41.2754 27.8941 41.3752 28.0167C41.4409 28.0974 41.3253 28.3205 41.34 28.3403C41.4749 28.5236 41.1948 28.6177 41.4714 28.6708C41.5395 28.6839 41.7548 28.4671 41.8036 28.4679C42.1623 28.4736 41.9106 28.402 42.2911 28.4571C42.4253 28.4764 42.6829 28.6299 42.8552 28.6654C45.4538 29.1988 48.6301 27.1922 50.5177 25.6387C52.7737 23.7826 54.7374 21.7986 57.4496 20.5937C60.0732 19.4284 62.9961 18.5095 65.7845 17.843C70.9411 16.6105 76.0618 16.589 81.1351 18.2927ZM146.774 137.063C146.858 137.108 146.941 137.152 147.025 137.197C147.143 137.136 147.262 137.076 147.381 137.016C147.04 136.853 147.017 136.782 146.774 137.063ZM174.466 129.67C173.841 130.066 173.304 130.96 172.757 131.493C171.989 132.241 171.186 132.953 170.384 133.664C171.308 133.986 172.649 135.288 173.649 134.698C174.145 134.406 174.458 133.547 174.771 133.091C175.256 132.386 175.823 131.724 176.394 131.087C176.981 130.431 175.121 129.255 174.466 129.67ZM115.867 116.159C116.115 116.263 116.657 116.863 116.406 117.073C116.151 116.777 115.808 116.564 115.867 116.159ZM36.3123 106.668C35.8598 107.061 35.3497 107.879 35.0347 108.395C34.6798 108.976 34.6672 109.268 35.2092 109.656C36.2566 110.405 37.7781 110.625 38.9928 110.974C39.6412 111.161 40.4429 111.63 40.9938 111.037C41.5393 110.45 41.5406 109.356 41.786 108.628C41.9848 108.038 42.1975 107.453 42.4039 106.867C41.259 106.982 40.1075 106.99 38.9819 106.733C38.1648 106.547 37.0349 106.042 36.3123 106.668ZM56.0879 75.2764C55.1634 76.5357 54.3387 77.8695 53.6116 79.2527C52.4084 81.5422 51.4731 83.973 50.8806 86.4932C50.4607 88.2787 49.8471 90.7889 50.806 92.5018C52.8949 96.2332 57.1346 85.4617 57.7817 84.3351C58.1669 83.6642 58.7649 82.9447 59.4272 83.8071C59.9705 84.5149 59.7936 85.6493 59.8187 86.4828C59.8937 88.96 59.549 91.9266 60.5365 94.2574C60.8606 95.0224 61.7192 96.1273 62.6882 95.7798C63.557 95.468 63.991 93.9674 64.2596 93.1943C65.1092 90.7487 65.7119 87.7594 65.7394 85.1716C65.7449 84.6517 65.2798 81.2147 66.4789 81.9751C67.2633 82.4722 67.2312 84.8852 67.3073 85.6748C67.6054 88.7595 68.2129 93.998 72.0287 94.5171C72.8688 94.6314 73.8197 94.4321 74.3116 93.6745C74.923 92.7331 74.3081 91.4674 74.0939 90.478C73.7247 88.7723 73.3065 87.014 73.2697 85.2581C73.2471 84.1818 73.3527 82.3924 74.8601 82.8077C76.6766 83.3081 77.445 85.6915 79.485 85.7713C79.487 85.2916 79.2223 84.9007 78.9979 84.4999C78.272 83.2046 76.95 82.0954 76.5025 80.6624C76.3558 80.1923 76.5084 79.4853 76.2181 79.0935C75.9439 78.7236 75.3249 78.6288 74.911 78.5451C72.1558 77.9869 69.4471 77.2313 66.7046 76.5878C63.7729 75.9003 61.0547 75.157 58.3092 73.9463C57.0721 73.4007 56.7896 74.3207 56.0879 75.2764ZM121.824 94.5971C122.228 94.7897 122.63 94.9905 123.039 95.1727C123.395 95.3316 123.534 95.2051 123.676 94.8715C123.419 94.8182 121.973 94.3029 121.824 94.5971ZM104.463 52.8103C99.2207 52.9645 94.0952 53.0317 88.928 54.03C86.4568 54.5075 84.0343 55.0607 81.6107 55.7387C80.587 56.0251 79.6845 56.3237 78.7917 56.8949C78.4598 57.1071 77.5811 57.7736 77.4463 57.0119C77.0049 57.4361 76.1442 58.7312 75.4385 58.0117C75.3147 58.5318 74.929 58.5157 74.5527 58.6925C74.4202 58.7547 74.348 58.9663 74.1776 59.0431C74.1347 59.0622 74.1204 58.7649 74.0579 58.7599C73.8331 58.7421 73.6558 59.217 73.5266 59.3381C73.2155 59.6284 72.9241 59.7613 72.5117 59.8667C72.3327 59.9268 72.149 59.9653 71.9611 59.9822C71.7397 60.0733 71.6071 60.0079 71.5633 59.7859C71.2578 59.7909 71.0343 59.9022 70.7143 60.0474C71.4048 60.2062 70.2432 60.3808 70.0888 60.3984C70.0697 60.9159 70.5107 60.588 70.7956 60.6952C70.6638 61.3447 69.4636 61.8405 68.9697 62.1591C68.8854 61.979 68.8011 61.799 68.7165 61.6192C68.5799 61.7516 68.4741 61.904 68.3985 62.0765C68.3475 62.2852 68.1997 62.3574 67.9551 62.293C67.7262 62.4753 67.6919 62.3909 67.5512 62.6475C67.4057 62.9134 67.8359 63.4309 67.2111 63.208C67.2111 64.0913 66.3931 63.556 66.5364 63.3268C65.9177 63.2668 65.6536 64.4027 65.723 64.8459C65.4272 64.5517 65.2456 64.5889 64.9485 64.8187L64.9222 64.8392L64.9378 64.8281C65.1664 64.673 64.9313 65.3075 64.9517 65.3001L64.9544 65.2975C64.3261 66.1279 64.3853 65.1981 64.5798 64.7082C64.154 64.8794 64.0734 65.3425 63.7317 65.6039C63.4275 65.8366 63.3419 65.7285 63.0802 65.7633C62.6772 65.8168 62.7988 65.4843 62.6221 65.9296C62.5473 66.1184 62.6607 66.4565 62.6607 66.6624C62.8354 66.4228 62.7693 66.0438 63.085 65.9066C62.9907 66.6009 61.6444 68.9863 61.0783 67.5805C60.5277 67.9643 61.1345 68.3848 60.7731 68.8989C60.5042 68.6388 60.4398 68.225 60.47 67.8706C60.3011 68.0958 60.3065 68.3805 60.1743 68.6084C60.0364 68.846 59.892 68.8652 59.8254 69.1235C59.7246 69.5158 60.0691 69.3236 59.8872 69.7397C59.796 69.9487 59.3684 70.1316 59.2002 70.2492C58.6109 70.6611 58.0152 71.1382 58.5871 71.8227C59.4827 72.8941 61.8425 73.0167 63.1099 73.1967C65.8125 73.5808 68.4464 74.2185 71.1091 74.8093C72.7125 75.1653 74.283 75.5615 75.8556 76.0362C76.9849 76.3767 78.5448 76.5885 79.1407 77.7612C82.2886 74.7426 86.4863 73.1676 90.3713 71.3571C94.5793 69.3964 98.9248 67.5757 103.383 66.2654C107.335 65.1033 111.389 64.6623 115.472 64.2618C116.548 64.1561 118.207 63.8858 119.166 64.5488C119.758 64.9581 119.785 65.5778 119.332 66.1253C119.086 66.4219 118.822 66.345 118.671 66.8738C118.555 67.2826 118.619 67.5922 118.725 67.9969C118.453 67.783 117.966 67.9104 117.826 67.5331L117.813 67.4908L117.8 67.5357C117.614 68.2722 118.912 68.3741 118.514 69.2574L118.488 69.3114C118.351 69.5812 118.35 68.7156 118.229 68.7093C117.899 68.6921 117.63 69.464 117.494 69.678C118.107 69.678 117.874 70.1251 117.545 70.3508C117.31 70.5119 116.914 70.5587 116.641 70.6917C116.097 70.9579 115.619 71.348 115.061 71.6018C114.45 71.8799 113.913 71.8971 113.306 72.0621C113.212 72.0875 112.84 72.2276 112.802 72.2308C112.751 72.2354 112.739 72.3933 112.695 72.3994C112.307 72.4544 112.014 72.0932 111.639 72.2404C111.495 72.2969 111.569 72.649 111.445 72.7288C111.307 72.8169 110.917 72.7044 110.751 72.6951C110.35 72.672 110.288 72.619 109.971 72.8053C109.424 73.1254 109.146 73.5581 108.41 73.6366C107.834 73.6982 107.463 73.589 106.915 73.8056C106.36 74.0246 105.835 74.0731 105.294 74.2198C105.226 74.2385 105.208 74.4736 105.152 74.4899C104.973 74.543 104.759 74.5025 104.588 74.5551C104.196 74.6763 103.877 74.7841 103.513 75.0013C101.911 75.9562 100.149 77.3894 98.8931 78.7654C98.3197 79.3936 96.7204 80.9759 97.242 81.8853C97.5765 82.4687 98.7316 82.7523 99.3076 82.9986C100.167 83.3663 101.055 83.634 101.924 83.9745C103.004 84.3981 103.983 85.0561 105.085 85.4249C106.148 85.7809 107.286 85.8511 108.384 86.0412C113.136 86.8631 117.791 88.185 122.545 89.0048C125.153 89.4544 127.815 89.9911 130.463 89.5673C132.797 89.1937 135.032 88.1582 136.897 86.7116C140.289 84.0791 142.653 80.3414 143.842 76.2297C144.087 75.3804 144.139 73.2557 144.931 72.736C145.591 72.3032 145.937 73.257 146.365 73.6338C147.061 74.2459 148.081 74.4827 148.918 74.8319C150.99 75.6963 152.872 76.6087 155.062 77.1934C157.283 77.786 159.534 78.2507 161.779 78.7393C166.329 79.7297 170.672 80.6665 175.349 80.6817C179.977 80.6965 184.622 80.8711 189.199 80.0161C193.202 79.2683 197.229 77.2254 200.222 74.4516C201.733 73.051 202.898 71.2821 204.087 69.6102C204.724 68.7134 205.317 67.7838 205.814 66.8012C206.18 66.079 206.809 65.0333 206.874 64.2144C206.931 63.4827 206.505 63.5866 205.776 63.5118C204.655 63.397 203.529 63.3242 202.407 63.2085C200.145 62.9758 197.89 62.679 195.629 62.4379C193.321 62.1917 191.028 61.8579 188.786 61.2447C188.116 61.0614 187.62 60.8303 187.147 61.4835C186.842 61.904 186.848 62.8636 186.211 62.1591C184.987 63.7093 183.197 64.6376 181.525 65.6104C179.715 66.6631 177.956 67.8214 176.038 68.6714C171.905 70.5032 167.351 70.358 162.965 69.7711C158.509 69.1746 153.993 68.4053 149.806 66.7044C147.885 65.9244 146.235 64.7376 144.512 63.6051C143.701 63.0717 142.86 62.6329 141.998 62.1884C141.027 61.6874 140.434 60.9446 139.556 60.3656C138.964 62.2985 136.687 62.963 134.889 63.0493C132.644 63.1572 130.83 62.0821 129.468 60.336C128.338 58.8865 128.118 56.7183 126.369 55.9249C124.373 55.0198 122.033 54.6602 119.897 54.2392C114.879 53.2509 109.576 52.6597 104.463 52.8103ZM131.077 67.671C131.641 67.9241 133.282 69.8169 131.98 69.8446C131.153 69.8622 130.667 68.8213 129.753 68.9789C129.343 69.0498 128.73 69.1916 128.63 69.5088C128.378 70.2988 129.537 70.8076 130.039 71.027C130.81 71.365 131.445 71.7048 131.866 72.4779C132.513 73.6656 132.683 75.5871 131.169 76.1184C130.044 76.5133 128.639 76.2069 127.528 75.8964C126.593 75.6346 125.878 74.6641 126.309 73.6997C126.431 73.4266 126.758 72.9449 127.138 73.1254C127.441 73.2689 127.294 73.5407 127.386 73.7841C127.758 74.7591 130.538 76.149 131.179 74.6754C131.959 72.8784 128.991 72.3372 128.085 71.7364C126.914 70.9599 126.883 69.6315 127.777 68.6164C128.56 67.7268 129.939 67.1608 131.077 67.671ZM135.981 73.7608C135.934 74.1842 135.876 74.623 135.803 75.0424C135.739 75.4071 135.742 75.7902 135.325 75.922C135.049 76.009 134.781 75.7156 134.515 75.9105C134.221 76.1266 134.362 74.5547 134.375 74.4664C134.462 73.8802 134.62 72.6898 135.183 72.3263C136.133 71.7109 136.037 73.2446 135.981 73.7608ZM135.92 71.3039C134.911 71.9447 134.649 70.1273 135.051 69.5363C136.047 68.0689 137.511 70.2943 135.92 71.3039ZM115.42 70.4108C115.709 70.6256 115.613 70.5073 115.613 71.0792C115.278 71.094 115.329 70.6332 115.42 70.4108ZM116.56 69.9161C116.463 70.1431 116.9 70.4156 117.041 70.451C117.049 70.3777 116.836 69.2722 116.56 69.9161ZM61.812 66.5957C61.5437 66.9857 61.6953 67.2248 62.1219 67.0713L62.1571 67.058L61.812 66.5957ZM67.2039 62.846L66.9485 62.9543C66.828 63.0698 66.7079 63.185 66.5876 63.3003C66.9385 63.2318 67.1822 63.2846 67.2039 62.846ZM68.6185 62.298C68.4427 61.9383 67.8384 62.6518 67.825 62.8188C67.9659 62.7351 68.8231 62.7168 68.6185 62.298ZM69.1856 61.0271C69.0389 61.2343 69.0688 61.4004 69.2754 61.5254C69.4469 61.2956 69.5772 61.0444 69.6659 60.7715C69.4369 60.6048 69.2672 60.8305 69.1856 61.0271ZM184.873 35.3521C184.43 35.5513 184.661 36.2371 184.705 36.6087C184.91 38.3788 185.236 40.1312 185.439 41.9008C185.723 44.3897 185.763 46.9086 186.229 49.3753C186.654 51.6248 187.37 53.8093 187.748 56.0692C188.001 57.5812 187.518 59.3281 189.316 59.7867C190.933 60.1992 192.777 60.2216 194.434 60.403C196.57 60.6365 198.709 60.7513 200.853 60.8555C201.869 60.9046 202.915 60.9175 203.92 61.0718C204.513 61.1627 205.25 61.5565 205.705 61.0068C206.148 60.4723 206.149 59.112 206.288 58.4296C206.47 57.5287 206.634 56.6231 206.724 55.7074C206.926 53.6343 206.628 51.5813 206.355 49.5286C206.06 47.3159 205.833 45.0938 205.528 42.8832C205.331 41.4583 205.354 39.1572 204.377 38.0071C203.485 40.6772 203.244 43.5121 203.199 46.3117C203.189 46.9127 202.797 50.3669 201.755 48.683C201.465 48.2146 201.46 47.9471 201.01 47.5512C200.546 47.143 200.384 46.8166 200.227 46.1986C199.942 45.0792 199.896 44.0948 199.281 43.0883C198.029 41.0395 197.522 38.5029 195.658 36.849C195.639 38.7715 195.362 40.8507 195.718 42.7497C195.942 43.943 196.861 45.6607 196.104 46.8412C195.726 47.43 195.508 47.2543 195.064 46.9586C194.779 46.769 194.822 46.6807 194.465 46.4909C194.124 46.31 193.856 46.3184 193.533 46.0658C192.39 45.1716 192.3 43.618 191.926 42.3315C191.102 39.4917 188.252 37.7377 186.07 35.9812C185.832 35.79 185.238 35.1879 184.873 35.3521ZM141.807 41.1056C140.133 41.7757 138.408 42.031 136.63 41.6524C136.632 42.0443 137.195 42.681 136.76 42.9062C136.656 42.96 136.064 42.7027 135.948 42.6727C135.307 42.5059 134.443 42.2191 133.772 42.3559C133.063 42.5007 133.088 42.9615 133.551 43.4834C134.202 44.2159 135.835 44.2457 135.854 45.4613C135.861 45.9868 135.538 46.6453 135.469 47.1874C135.366 47.998 135.253 48.8021 135.063 49.5982C134.737 50.9668 134.208 52.2687 133.579 53.524C133.036 54.6054 132.377 55.7322 131.367 56.4389C130.708 56.8995 130.962 56.6916 131.091 57.3704C131.178 57.8251 131.163 58.1637 130.578 58.0515C130.466 58.0169 130.354 57.9826 130.242 57.948C131.615 60.2042 135.086 61.6263 137.463 60.1207C136.461 59.3105 137.821 57.898 138.395 57.2996C139.255 56.403 140.157 55.3714 141.079 54.553C142.491 53.3 144.339 53.9098 146.01 53.3827C147.701 52.8493 148.931 51.6457 150.024 50.3006C150.997 49.1026 152.288 47.6366 152.42 46.0151C152.445 45.6976 152.292 45.3254 152.348 45.0251C152.404 44.7189 152.589 44.6791 152.686 44.4786C152.883 44.0661 152.931 43.6414 152.963 43.1691C153.065 41.6279 152.577 41.3859 151.134 40.9877C150.293 40.7555 149.44 40.5732 148.598 40.3465C147.794 40.1301 147.077 39.7137 146.284 39.4814C144.616 38.9924 143.276 40.5172 141.807 41.1056ZM146.107 50.791C147.434 51.5986 145.342 52.1157 144.569 51.7587C143.526 51.2764 145.366 50.3401 146.107 50.791ZM148.607 44.0761C149.811 45.5198 151.151 48.454 148.512 49.0478C147.698 49.2312 146.438 49.5273 145.619 49.3027C144.45 48.9815 144.755 47.4507 145.922 47.3835C146.613 47.3437 148.199 47.8921 148.61 47.0869C148.833 46.6503 148.326 45.9564 148.249 45.5206C148.15 44.9598 148.241 44.5117 148.607 44.0761ZM76.6906 48.4112L76.6916 48.4128C76.6959 48.4188 76.7026 48.4259 76.7119 48.4342L76.7166 48.438L76.7077 48.4296L76.6906 48.4112ZM150.993 44.5922C151.83 44.5903 151.415 46.3727 151 46.6771C150.255 47.2233 149.936 44.5944 150.993 44.5922ZM145.478 45.9361C144.507 46.0542 144.726 43.724 145.61 43.6525C146.771 43.5583 146.6 45.7998 145.478 45.9361ZM153.876 42.0686C153.759 42.3061 153.848 44.618 154.126 44.6617C154.201 44.097 154.16 43.5292 154.152 42.962L154.151 42.8187C154.157 42.8276 154.203 41.3987 153.876 42.0686Z" fill="black"/>
</svg>
